<?xml version="1.0" encoding="utf-8"?>
<!-- Generator: Adobe Illustrator 24.2.0, SVG Export Plug-In . SVG Version: 6.00 Build 0)  -->
<svg version="1.1" id="Layer_1" xmlns="http://www.w3.org/2000/svg" xmlns:xlink="http://www.w3.org/1999/xlink" x="0px" y="0px"
	 viewBox="0 0 101.8 32" style="enable-background:new 0 0 101.8 32;" xml:space="preserve">
<g>
	<g>
		<path d="M8.4,32c-0.9,0-1.6-0.7-1.6-1.5v-29C6.8,0.7,7.5,0,8.4,0C9.3,0,10,0.7,10,1.5v29C10,31.3,9.3,32,8.4,32z M1.6,32
			C0.7,32,0,31.3,0,30.5v-29C0,0.7,0.7,0,1.6,0c0.9,0,1.6,0.7,1.6,1.5v29C3.2,31.3,2.5,32,1.6,32z"/>
	</g>
	<g>
		<path d="M37,32H17.2c-0.9,0-1.6-0.7-1.6-1.5v-29c0-0.8,0.7-1.5,1.6-1.5c0.9,0,1.6,0.7,1.6,1.5V29H37c0.9,0,1.6,0.7,1.6,1.5
			C38.7,31.4,37.9,32,37,32z M37,26.2H24c-0.9,0-1.6-0.7-1.6-1.5V1.5C22.4,0.7,23.1,0,24,0c0.9,0,1.6,0.7,1.6,1.5v21.7H37
			c0.9,0,1.6,0.7,1.6,1.5C38.7,25.6,37.9,26.2,37,26.2z"/>
	</g>
	<g>
		<path d="M55.5,32c-0.9,0-1.6-0.7-1.6-1.6V17.6c0-0.1,0-0.4,0.1-0.6l0.1-0.3l12-16.1c0.5-0.6,1.4-0.7,2-0.4l0,0
			c0.4,0.2,0.7,0.6,0.8,1c0.1,0.4,0,0.8-0.2,1.2L57.1,18v12.4C57.1,31.3,56.4,32,55.5,32z M48.7,32c-0.9,0-1.6-0.7-1.6-1.6V18
			L35.5,2.4c-0.3-0.3-0.4-0.7-0.3-1.1c0-0.4,0.3-0.9,0.7-1.1L36,0.2c0.6-0.3,1.5-0.2,2,0.4l0.1,0.1l12,16.1c0.1,0.1,0.2,0.4,0.2,0.8
			v12.9C50.3,31.3,49.6,32,48.7,32z M52.1,13.1L52.1,13.1c-0.5,0-1-0.3-1.3-0.7L43.8,2.3c-0.3-0.3-0.3-0.8-0.2-1.2
			c0.1-0.4,0.4-0.8,0.8-1c0.7-0.3,1.6-0.1,2,0.5L52,8.8l5.8-8.3c0.6-0.5,1.3-0.6,1.9-0.3c0.4,0.2,0.7,0.6,0.8,1s0.1,0.8-0.2,1.2
			l-7,10.1C53.1,12.9,52.6,13.1,52.1,13.1z M45.5,1.1L45.5,1.1C45.5,1.1,45.5,1.1,45.5,1.1z"/>
	</g>
	<g>
		<path d="M94,32c-0.4,0-0.9-0.2-1.2-0.5l-0.1-0.1L80.9,16.9v13.6c0,0.9-0.7,1.5-1.6,1.5s-1.6-0.6-1.6-1.5v-18
			c0-0.6,0.4-1.1,0.9-1.4c0.6-0.3,1.4-0.1,1.9,0.4l0.1,0.1l14.8,18c0.5,0.7,0.4,1.6-0.2,2.1C94.8,31.9,94.4,32,94,32z M100.2,32
			c-0.9,0-1.6-0.6-1.6-1.5v-29c0-0.9,0.7-1.5,1.6-1.5s1.6,0.7,1.6,1.5v29C101.8,31.4,101.1,32,100.2,32z M72.4,32
			c-0.9,0-1.6-0.7-1.6-1.5v-29c0-0.9,0.7-1.5,1.6-1.5S74,0.7,74,1.5v29C74,31.4,73.3,32,72.4,32z M93.4,21.1c-0.5,0-1-0.2-1.3-0.6
			l-14.8-18C77,2.1,76.9,1.5,77.1,1c0.2-0.5,0.7-0.9,1.3-1c0.6-0.1,1.1,0.2,1.4,0.6l12,14.5V1.5c0-0.9,0.7-1.5,1.6-1.5
			s1.6,0.7,1.6,1.5v18c0,0.7-0.5,1.2-1.1,1.5C93.7,21.1,93.6,21.1,93.4,21.1z M78.9,1.1L78.9,1.1C79,1.1,78.9,1.1,78.9,1.1z"/>
	</g>
</g>
</svg>
